<svg id="_x31_"  viewBox="0 0 24 24" xmlns="http://www.w3.org/2000/svg"><path d="m13.5 12.5h-3c-.276 0-.5-.224-.5-.5s.224-.5.5-.5h3c.276 0 .5.224.5.5s-.224.5-.5.5z"/><path d="m13.5 15h-2c-.827 0-1.5-.673-1.5-1.5v-3c0-.827.673-1.5 1.5-1.5h2c.276 0 .5.224.5.5s-.224.5-.5.5h-2c-.276 0-.5.224-.5.5v3c0 .276.224.5.5.5h2c.276 0 .5.224.5.5s-.224.5-.5.5z"/><path d="m19.5 15c-.186 0-.361-.104-.447-.276l-1.053-2.106-1.053 2.105c-.104.208-.34.315-.562.263-.225-.052-.385-.254-.385-.486v-5c0-.276.224-.5.5-.5s.5.224.5.5v2.882l.553-1.105c.17-.339.725-.339.895 0l.552 1.105v-2.882c0-.276.224-.5.5-.5s.5.224.5.5v5c0 .232-.16.434-.385.487-.038.009-.077.013-.115.013z"/><path d="m7.5 15c-.172 0-.337-.089-.429-.243l-2.071-3.452v3.195c0 .276-.224.5-.5.5s-.5-.224-.5-.5v-5c0-.225.15-.422.367-.482.215-.059.446.032.562.225l2.071 3.452v-3.195c0-.276.224-.5.5-.5s.5.224.5.5v5c0 .225-.15.422-.367.482-.044.012-.089.018-.133.018z"/><path d="m21.5 19h-19c-1.378 0-2.5-1.122-2.5-2.5v-9c0-1.378 1.122-2.5 2.5-2.5h19c1.378 0 2.5 1.122 2.5 2.5v9c0 1.378-1.122 2.5-2.5 2.5zm-19-13c-.827 0-1.5.673-1.5 1.5v9c0 .827.673 1.5 1.5 1.5h19c.827 0 1.5-.673 1.5-1.5v-9c0-.827-.673-1.5-1.5-1.5z"/></svg>