<svg fill="#fff" id="_x31__px" height="70" viewBox="0 0 24 24" width="70" xmlns="http://www.w3.org/2000/svg"><path d="m12 7c-3.785 0-6.296-3.147-6.296-5.229 0-.511.156-.946.451-1.258.221-.234.635-.513 1.345-.513 1.478 0 2.222 1.537 3.009 3.164.525 1.084 1.068 2.206 1.844 2.982.143.143.186.358.108.545-.076.187-.259.309-.461.309zm-4.5-6c-.285 0-.493.067-.619.201-.146.155-.177.396-.177.57 0 1.272 1.583 3.561 4.151 4.108-.493-.723-.885-1.535-1.246-2.279-.675-1.395-1.258-2.6-2.109-2.6z"/><path d="m12 7c-.202 0-.385-.122-.462-.309-.078-.187-.035-.402.108-.545.776-.776 1.319-1.898 1.844-2.982.788-1.627 1.532-3.164 3.01-3.164.71 0 1.124.279 1.345.514.295.312.451.747.451 1.258 0 2.081-2.511 5.228-6.296 5.228zm4.5-6c-.851 0-1.434 1.205-2.109 2.6-.361.745-.753 1.556-1.246 2.28 2.567-.547 4.151-2.836 4.151-4.108 0-.175-.031-.416-.178-.571-.125-.134-.333-.201-.618-.201z"/><path d="m4.5 18h-4c-.139 0-.272-.058-.367-.16-.095-.103-.143-.239-.132-.378l.609-7.917c.248-3.215 2.629-5.903 5.792-6.535.272-.057.535.121.588.392.054.271-.121.534-.392.588-2.725.545-4.777 2.861-4.991 5.633l-.567 7.377h3.46c.276 0 .5.224.5.5s-.224.5-.5.5z"/><path d="m19.5 21h-15c-.276 0-.5-.224-.5-.5v-10c0-.276.224-.5.5-.5s.5.224.5.5v9.5h14v-9.5c0-.276.224-.5.5-.5s.5.224.5.5v10c0 .276-.224.5-.5.5z"/><path d="m17.5 24h-11c-1.378 0-2.5-1.122-2.5-2.5v-1c0-.276.224-.5.5-.5h15c.276 0 .5.224.5.5v1c0 1.378-1.122 2.5-2.5 2.5zm-12.5-3v.5c0 .827.673 1.5 1.5 1.5h11c.827 0 1.5-.673 1.5-1.5v-.5z"/><path d="m4.5 20h-2c-.827 0-1.5-.673-1.5-1.5v-1c0-.276.224-.5.5-.5h3c.276 0 .5.224.5.5v2c0 .276-.224.5-.5.5zm-2.5-2v.5c0 .276.224.5.5.5h1.5v-1z"/><path d="m23.5 18h-4c-.276 0-.5-.224-.5-.5s.224-.5.5-.5h3.46l-.567-7.377c-.213-2.771-2.266-5.087-4.991-5.632-.271-.054-.446-.317-.392-.588s.313-.45.588-.392c3.163.632 5.544 3.32 5.792 6.536l.609 7.916c.011.139-.037.276-.132.378-.095.101-.228.159-.367.159z"/><path d="m21.5 20h-2c-.276 0-.5-.224-.5-.5v-2c0-.276.224-.5.5-.5h3c.276 0 .5.224.5.5v1c0 .827-.673 1.5-1.5 1.5zm-1.5-1h1.5c.276 0 .5-.224.5-.5v-.5h-2z"/><path d="m10.5 10c-.276 0-.5-.224-.5-.5v-3c0-.276.224-.5.5-.5s.5.224.5.5v3c0 .276-.224.5-.5.5z"/><path d="m13.5 14c-.276 0-.5-.224-.5-.5v-7c0-.276.224-.5.5-.5s.5.224.5.5v7c0 .276-.224.5-.5.5z"/><path d="m16.5 1h-9c-.276 0-.5-.224-.5-.5s.224-.5.5-.5h9c.276 0 .5.224.5.5s-.224.5-.5.5z"/></svg>