<svg fill="#fff" id="Capa_1" enable-background="new 0 0 512.005 512.005" height="70" viewBox="0 0 512.005 512.005" width="70" xmlns="http://www.w3.org/2000/svg"><g><path d="m437.005 161.134v-146.131c0-8.284-6.716-15-15-15h-75c-8.284 0-15 6.716-15 15v145.907c0 43.414-34.804 80.092-76 80.092-41.906 0-76-33.645-76-75v-151c0-8.284-6.716-15-15-15h-75c-8.284 0-15 6.716-15 15v146.131c0 29.638-17.175 56.489-35.358 84.916-19.674 30.759-40.018 62.564-39.642 100.637.331 33.42 15.071 65.011 45 96.411v53.905c0 8.284 6.716 15 15 15h392c8.284 0 15-6.716 15-15v-53.905c30.132-31.611 44.872-63.388 45-96.981.143-37.758-20.066-69.359-39.609-99.919-18.201-28.459-35.391-55.339-35.391-85.063zm0 320.869h-362v-30h362zm8.665-60h-379.331c-24.182-25.506-36.085-50.288-36.335-75.613-.288-29.138 16.812-55.872 34.916-84.175 19.707-30.81 40.085-62.669 40.085-101.081v-131.131h45v136c0 57.897 47.551 105 106 105 60.106 0 106-52.046 106-110.092v-130.908h45v131.131c0 38.496 20.394 70.386 40.117 101.226 17.996 28.14 34.993 54.719 34.883 83.642-.097 25.427-12 50.336-36.335 76.001z"/></g></svg>