<svg fill="#fff" height="70" width="70" viewBox="-123 0 512 512" xmlns="http://www.w3.org/2000/svg"><path d="m256.558594 136.648438c-1.417969-.644532-2.882813-1.085938-4.355469-1.34375v-14.976563c0-4.144531-3.355469-7.5-7.5-7.5-4.140625 0-7.5 3.355469-7.5 7.5v19.554687l-11.011719 9.546876v-134.429688h8.511719c1.378906 0 2.5 1.121094 2.5 2.5v68.648438c0 4.144531 3.359375 7.5 7.5 7.5 4.144531 0 7.5-3.355469 7.5-7.5v-68.648438c0-9.648438-7.851563-17.5-17.5-17.5h-207.261719c-9.648437 0-17.5 7.851562-17.5 17.5v218.691406c-5.765625 1.914063-9.941406 7.351563-9.941406 13.75v10.292969c0 6.398437 4.175781 11.835937 9.941406 13.746094v12.007812c-5.765625 1.914063-9.941406 7.347657-9.941406 13.746094v10.292969c0 6.398437 4.175781 11.835937 9.941406 13.75v12.003906c-5.765625 1.914062-9.941406 7.347656-9.941406 13.75v10.289062c0 6.402344 4.175781 11.835938 9.941406 13.75v120.929688c0 9.648438 7.851563 17.5 17.5 17.5h49.613282c9.105468 0 16.597656-6.835938 17.425781-15.90625l5.09375-55.621094c.375-4.125-2.660157-7.773437-6.785157-8.152344-4.125-.382812-7.777343 2.660157-8.152343 6.785157l-5.09375 55.621093c-.117188 1.296876-1.1875 2.273438-2.488281 2.273438h-26.097657v-122.6875h2.925781c7.988282 0 14.488282-6.5 14.488282-14.492188v-10.289062c0-7.992188-6.5-14.492188-14.488282-14.492188h-2.925781v-10.519531h2.925781c7.988282 0 14.488282-6.503906 14.488282-14.492187v-10.292969c0-7.992187-6.5-14.492187-14.488282-14.492187h-2.925781v-10.519532h2.925781c7.988282 0 14.488282-6.5 14.488282-14.492187v-10.289063c0-7.992187-6.5-14.492187-14.488282-14.492187h-2.925781v-220.449219h48.246094v64.605469c0 4.140625 3.359375 7.5 7.5 7.5h16.871094v57.09375c-7.386719 2.773437-12.808594 9.539062-13.574219 17.871093l-22.234375 242.859376c-.378906 4.125 2.660156 7.773437 6.785156 8.152343.230469.019531.460938.03125.691407.03125 3.832031 0 7.101562-2.925781 7.457031-6.816406l22.238281-242.859375c.289062-3.195312 2.929688-5.601562 6.132812-5.601562 3.207032 0 5.84375 2.40625 6.136719 5.601562l5.355469 58.492188c-4.082031 3.667968-6.230469 9.082031-5.746094 14.5625l7.058594 79.785156c.363281 4.125 4.015625 7.175781 8.132812 6.8125 4.125-.367188 7.175782-4.007813 6.808594-8.132813l-7.058594-79.785156c-.070312-.800781.25-1.589844.855469-2.113281l95.035157-82.378906c1.058593-.917969 2.132812-.636719 2.679687-.386719.542969.25 1.460937.875 1.460937 2.273437v291.171875c0 1.375-1.121093 2.5-2.5 2.5h-76.566406c-1.304687 0-2.375-.980469-2.492187-2.28125l-8.386719-94.824219c-.363281-4.125-4.011719-7.179687-8.132812-6.8125-4.125.367188-7.175782 4.007813-6.808594 8.132813l8.386718 94.824219c.535157 6.042968 4.03125 11.085937 8.988282 13.796875l3.386718 37.019531c.828126 9.066406 8.324219 15.90625 17.429688 15.90625h49.609375c9.648437 0 17.5-7.851562 17.5-17.5v-33.523438c8.265625-1.398437 14.585937-8.585937 14.585937-17.238281v-291.171875c0-6.9375-3.921874-13.035156-10.230468-15.917968zm-45.367188 25.785156-54.671875 47.390625-4.375-47.753907c-.761719-8.332031-6.179687-15.097656-13.570312-17.871093v-129.199219h72.617187zm-175.238281 334.566406h-8.511719c-1.378906 0-2.5-1.121094-2.5-2.5v-120.1875h11.011719zm17.417969-137.6875h-38.371094v-9.273438h38.371094zm-17.417969-24.273438h-11.011719v-10.519531h11.011719zm17.417969-25.519531h-38.371094v-9.273437h38.371094zm-17.417969-24.273437h-11.011719v-10.519532h11.011719zm17.417969-25.519532h-38.371094v-9.277343h38.371094zm-17.417969-24.277343h-11.011719v-217.949219c0-1.378906 1.121094-2.5 2.5-2.5h8.511719zm78.25-163.34375v-57.105469h9.371094v57.105469zm68.398437 422.621093-3.066406-33.488281h31.65625v35.761719h-26.097656c-1.304688 0-2.371094-.976562-2.492188-2.273438zm52.101563 2.273438h-8.511719v-35.761719h11.011719v33.261719c0 1.378906-1.121094 2.5-2.5 2.5zm0 0"/></svg>